<?xml version="1.0" encoding="utf-8" standalone="no"?>
<!DOCTYPE svg PUBLIC "-//W3C//DTD SVG 1.1//EN" "http://www.w3.org/Graphics/SVG/1.1/DTD/svg11.dtd">

<svg width="800mm" height="600mm" viewBox="0 0 800 600" xmlns="http://www.w3.org/2000/svg" xmlns:xlink="http://www.w3.org/1999/xlink" version="1.1" style="stroke:black; fill:none; stroke-width:0.5pt; stroke-linejoin:round; text-anchor:middle" font-family="Helvetica, Arial, FreeSans, Sans, sans, sans-serif">

<g>

<rect x="0" y="0" width="800.0" height="600.0" stroke="none" fill="black" />

<circle cx="60" cy="60" r="16" fill="white" stroke="none" />
<circle cx="140" cy="60" r="16" fill="white" stroke="none" />
<circle cx="220" cy="60" r="16" fill="white" stroke="none" />
<circle cx="300" cy="60" r="16" fill="white" stroke="none" />
<circle cx="380" cy="60" r="16" fill="white" stroke="none" />
<circle cx="460" cy="60" r="16" fill="white" stroke="none" />
<circle cx="540" cy="60" r="16" fill="white" stroke="none" />
<circle cx="620" cy="60" r="16" fill="white" stroke="none" />
<circle cx="700" cy="60" r="16" fill="white" stroke="none" />
<circle cx="100" cy="100" r="16" fill="white" stroke="none" />
<circle cx="180" cy="100" r="16" fill="white" stroke="none" />
<circle cx="260" cy="100" r="16" fill="white" stroke="none" />
<circle cx="340" cy="100" r="16" fill="white" stroke="none" />
<circle cx="420" cy="100" r="16" fill="white" stroke="none" />
<circle cx="500" cy="100" r="16" fill="white" stroke="none" />
<circle cx="580" cy="100" r="16" fill="white" stroke="none" />
<circle cx="660" cy="100" r="16" fill="white" stroke="none" />
<circle cx="740" cy="100" r="16" fill="white" stroke="none" />
<circle cx="60" cy="140" r="16" fill="white" stroke="none" />
<circle cx="140" cy="140" r="16" fill="white" stroke="none" />
<circle cx="220" cy="140" r="16" fill="white" stroke="none" />
<circle cx="300" cy="140" r="16" fill="white" stroke="none" />
<circle cx="380" cy="140" r="16" fill="white" stroke="none" />
<circle cx="460" cy="140" r="16" fill="white" stroke="none" />
<circle cx="540" cy="140" r="16" fill="white" stroke="none" />
<circle cx="620" cy="140" r="16" fill="white" stroke="none" />
<circle cx="700" cy="140" r="16" fill="white" stroke="none" />
<circle cx="100" cy="180" r="16" fill="white" stroke="none" />
<circle cx="180" cy="180" r="16" fill="white" stroke="none" />
<circle cx="260" cy="180" r="16" fill="white" stroke="none" />
<circle cx="340" cy="180" r="16" fill="white" stroke="none" />
<circle cx="420" cy="180" r="16" fill="white" stroke="none" />
<circle cx="500" cy="180" r="16" fill="white" stroke="none" />
<circle cx="580" cy="180" r="16" fill="white" stroke="none" />
<circle cx="660" cy="180" r="16" fill="white" stroke="none" />
<circle cx="740" cy="180" r="16" fill="white" stroke="none" />
<circle cx="60" cy="220" r="16" fill="white" stroke="none" />
<circle cx="140" cy="220" r="16" fill="white" stroke="none" />
<circle cx="220" cy="220" r="16" fill="white" stroke="none" />
<circle cx="300" cy="220" r="16" fill="white" stroke="none" />
<circle cx="380" cy="220" r="16" fill="white" stroke="none" />
<circle cx="460" cy="220" r="16" fill="white" stroke="none" />
<circle cx="540" cy="220" r="16" fill="white" stroke="none" />
<circle cx="620" cy="220" r="16" fill="white" stroke="none" />
<circle cx="700" cy="220" r="16" fill="white" stroke="none" />
<circle cx="100" cy="260" r="16" fill="white" stroke="none" />
<circle cx="180" cy="260" r="16" fill="white" stroke="none" />
<circle cx="260" cy="260" r="16" fill="white" stroke="none" />
<circle cx="340" cy="260" r="16" fill="white" stroke="none" />
<circle cx="420" cy="260" r="16" fill="white" stroke="none" />
<circle cx="500" cy="260" r="16" fill="white" stroke="none" />
<circle cx="580" cy="260" r="16" fill="white" stroke="none" />
<circle cx="660" cy="260" r="16" fill="white" stroke="none" />
<circle cx="740" cy="260" r="16" fill="white" stroke="none" />
<circle cx="60" cy="300" r="16" fill="white" stroke="none" />
<circle cx="140" cy="300" r="16" fill="white" stroke="none" />
<circle cx="220" cy="300" r="16" fill="white" stroke="none" />
<circle cx="300" cy="300" r="16" fill="white" stroke="none" />
<circle cx="380" cy="300" r="16" fill="white" stroke="none" />
<circle cx="460" cy="300" r="16" fill="white" stroke="none" />
<circle cx="540" cy="300" r="16" fill="white" stroke="none" />
<circle cx="620" cy="300" r="16" fill="white" stroke="none" />
<circle cx="700" cy="300" r="16" fill="white" stroke="none" />
<circle cx="100" cy="340" r="16" fill="white" stroke="none" />
<circle cx="180" cy="340" r="16" fill="white" stroke="none" />
<circle cx="260" cy="340" r="16" fill="white" stroke="none" />
<circle cx="340" cy="340" r="16" fill="white" stroke="none" />
<circle cx="420" cy="340" r="16" fill="white" stroke="none" />
<circle cx="500" cy="340" r="16" fill="white" stroke="none" />
<circle cx="580" cy="340" r="16" fill="white" stroke="none" />
<circle cx="660" cy="340" r="16" fill="white" stroke="none" />
<circle cx="740" cy="340" r="16" fill="white" stroke="none" />
<circle cx="60" cy="380" r="16" fill="white" stroke="none" />
<circle cx="140" cy="380" r="16" fill="white" stroke="none" />
<circle cx="220" cy="380" r="16" fill="white" stroke="none" />
<circle cx="300" cy="380" r="16" fill="white" stroke="none" />
<circle cx="380" cy="380" r="16" fill="white" stroke="none" />
<circle cx="460" cy="380" r="16" fill="white" stroke="none" />
<circle cx="540" cy="380" r="16" fill="white" stroke="none" />
<circle cx="620" cy="380" r="16" fill="white" stroke="none" />
<circle cx="700" cy="380" r="16" fill="white" stroke="none" />
<circle cx="100" cy="420" r="16" fill="white" stroke="none" />
<circle cx="180" cy="420" r="16" fill="white" stroke="none" />
<circle cx="260" cy="420" r="16" fill="white" stroke="none" />
<circle cx="340" cy="420" r="16" fill="white" stroke="none" />
<circle cx="420" cy="420" r="16" fill="white" stroke="none" />
<circle cx="500" cy="420" r="16" fill="white" stroke="none" />
<circle cx="580" cy="420" r="16" fill="white" stroke="none" />
<circle cx="660" cy="420" r="16" fill="white" stroke="none" />
<circle cx="740" cy="420" r="16" fill="white" stroke="none" />
<circle cx="60" cy="460" r="16" fill="white" stroke="none" />
<circle cx="140" cy="460" r="16" fill="white" stroke="none" />
<circle cx="220" cy="460" r="16" fill="white" stroke="none" />
<circle cx="300" cy="460" r="16" fill="white" stroke="none" />
<circle cx="380" cy="460" r="16" fill="white" stroke="none" />
<circle cx="460" cy="460" r="16" fill="white" stroke="none" />
<circle cx="540" cy="460" r="16" fill="white" stroke="none" />
<circle cx="620" cy="460" r="16" fill="white" stroke="none" />
<circle cx="700" cy="460" r="16" fill="white" stroke="none" />
<circle cx="100" cy="500" r="16" fill="white" stroke="none" />
<circle cx="180" cy="500" r="16" fill="white" stroke="none" />
<circle cx="260" cy="500" r="16" fill="white" stroke="none" />
<circle cx="340" cy="500" r="16" fill="white" stroke="none" />
<circle cx="420" cy="500" r="16" fill="white" stroke="none" />
<circle cx="500" cy="500" r="16" fill="white" stroke="none" />
<circle cx="580" cy="500" r="16" fill="white" stroke="none" />
<circle cx="660" cy="500" r="16" fill="white" stroke="none" />
<circle cx="740" cy="500" r="16" fill="white" stroke="none" />
<circle cx="60" cy="540" r="16" fill="white" stroke="none" />
<circle cx="140" cy="540" r="16" fill="white" stroke="none" />
<circle cx="220" cy="540" r="16" fill="white" stroke="none" />
<circle cx="300" cy="540" r="16" fill="white" stroke="none" />
<circle cx="380" cy="540" r="16" fill="white" stroke="none" />
<circle cx="460" cy="540" r="16" fill="white" stroke="none" />
<circle cx="540" cy="540" r="16" fill="white" stroke="none" />
<circle cx="620" cy="540" r="16" fill="white" stroke="none" />
<circle cx="700" cy="540" r="16" fill="white" stroke="none" />


</g>

</svg>

